<?xml version="1.0" encoding="utf-8"?>
<!-- Generator: Adobe Illustrator 19.0.0, SVG Export Plug-In . SVG Version: 6.00 Build 0)  -->
<svg version="1.1" xmlns="http://www.w3.org/2000/svg" xmlns:xlink="http://www.w3.org/1999/xlink" x="0px" y="0px"
	 viewBox="0 0 337.522 337.522" style="enable-background:new 0 0 337.522 337.522;" xml:space="preserve">
<g id="VuMark-UserData">
</g>
<g id="VuMark-Background">
	<rect x="48.761" y="48.761" width="40" height="40"/>
	<rect x="248.761" y="248.761" width="40" height="40"/>
</g>
<g id="VuMark-Border">
	<rect x="1.5" y="1.5" style="stroke:#000000;stroke-width:3;stroke-miterlimit:10;" width="334.522" height="334.522"/>
</g>
<g id="VuMark-ClearSpace">
	<rect x="6.261" y="6.261" style="fill:#FFFFFF;stroke:#FFFFFF;stroke-miterlimit:10;" width="325" height="325"/>
</g>
<g id="VuMark-Origin">
	
		<circle id="VuMark_Origin_Locator" style="fill:none;stroke:#E6007E;stroke-width:0.75;stroke-miterlimit:10;" cx="168.761" cy="169.203" r="10"/>
</g>
<g id="VuMark-Contour">
	
		<rect id="contour_13_" x="24.804" y="24.804" style="fill:none;stroke:#E6007E;stroke-miterlimit:10;" width="287.914" height="287.914"/>
</g>
<g id="VuMark-DarkElements">
	<rect id="d0021" x="88.761" y="48.761" width="40" height="40"/>
	<rect id="d0023" x="128.761" y="48.761" width="40" height="40"/>
	<rect id="d0032" x="168.761" y="48.761" width="40" height="40"/>
	<rect id="d0033" x="208.761" y="48.761" width="40" height="40"/>
	<rect id="d0030" x="248.761" y="48.761" width="40" height="40"/>
	<rect id="d0020" x="48.761" y="88.761" width="40" height="40"/>
	<rect id="d0022" x="88.761" y="88.761" width="40" height="40"/>
	<rect id="d0018" x="128.761" y="88.761" width="40" height="40"/>
	<rect id="d0028" x="168.761" y="88.761" width="40" height="40"/>
	<rect id="d0029" x="208.761" y="88.761" width="40" height="40"/>
	<rect id="d0031" x="248.761" y="88.761" width="40" height="40"/>
	<rect id="d0016" x="48.761" y="128.761" width="40" height="40"/>
	<rect id="d0017" x="88.761" y="128.761" width="40" height="40"/>
	<rect id="d0019" x="128.761" y="128.761" width="40" height="40"/>
	<rect id="d0025" x="168.761" y="128.761" width="40" height="40"/>
	<rect id="d0026" x="208.761" y="128.761" width="40" height="40"/>
	<rect id="d0027" x="248.761" y="128.761" width="40" height="40"/>
	<rect id="d0005" x="48.761" y="168.761" width="40" height="40"/>
	<rect id="d0006" x="88.761" y="168.761" width="40" height="40"/>
	<rect id="d0024" x="128.761" y="168.761" width="40" height="40"/>
	<rect id="d0012" x="168.761" y="168.761" width="40" height="40"/>
	<rect id="d0013" x="208.761" y="168.761" width="40" height="40"/>
	<rect id="d0015" x="248.761" y="168.761" width="40" height="40"/>
	<rect id="d0004" x="48.761" y="208.761" width="40" height="40"/>
	<rect id="d0007" x="88.761" y="208.761" width="40" height="40"/>
	<rect id="d0002" x="128.761" y="208.761" width="40" height="40"/>
	<rect id="d0009" x="168.761" y="208.761" width="40" height="40"/>
	<rect id="d0014" x="208.761" y="208.761" width="40" height="40"/>
	<rect id="d0011" x="248.761" y="208.761" width="40" height="40"/>
	<rect id="d0000" x="48.761" y="248.761" width="40" height="40"/>
	<rect id="d0001" x="88.761" y="248.761" width="40" height="40"/>
	<rect id="d0003" x="128.761" y="248.761" width="40" height="40"/>
	<rect id="d0008" x="168.761" y="248.761" width="40" height="40"/>
	<rect id="d0010" x="208.761" y="248.761" width="40" height="40"/>
</g>
<g id="VuMark-BrightElements">
	<rect id="b0021" x="88.761" y="48.761" style="fill:#FFFFFF;stroke:#FFFFFF;stroke-miterlimit:10;" width="40" height="40"/>
	<rect id="b0023" x="128.761" y="48.761" style="fill:#FFFFFF;stroke:#FFFFFF;stroke-miterlimit:10;" width="40" height="40"/>
	<rect id="b0032" x="168.761" y="48.761" style="fill:#FFFFFF;stroke:#FFFFFF;stroke-miterlimit:10;" width="40" height="40"/>
	<rect id="b0033" x="208.761" y="48.761" style="fill:#FFFFFF;stroke:#FFFFFF;stroke-miterlimit:10;" width="40" height="40"/>
	<rect id="b0030" x="248.761" y="48.761" style="fill:#FFFFFF;stroke:#FFFFFF;stroke-miterlimit:10;" width="40" height="40"/>
	<rect id="b0020" x="48.761" y="88.761" style="fill:#FFFFFF;stroke:#FFFFFF;stroke-miterlimit:10;" width="40" height="40"/>
	<rect id="b0022" x="88.761" y="88.761" style="fill:#FFFFFF;stroke:#FFFFFF;stroke-miterlimit:10;" width="40" height="40"/>
	<rect id="b0018" x="128.761" y="88.761" style="fill:#FFFFFF;stroke:#FFFFFF;stroke-miterlimit:10;" width="40" height="40"/>
	<rect id="b0028" x="168.761" y="88.761" style="fill:#FFFFFF;stroke:#FFFFFF;stroke-miterlimit:10;" width="40" height="40"/>
	<rect id="b0029" x="208.761" y="88.761" style="fill:#FFFFFF;stroke:#FFFFFF;stroke-miterlimit:10;" width="40" height="40"/>
	<rect id="b0031" x="248.761" y="88.761" style="fill:#FFFFFF;stroke:#FFFFFF;stroke-miterlimit:10;" width="40" height="40"/>
	<rect id="b0016" x="48.761" y="128.761" style="fill:#FFFFFF;stroke:#FFFFFF;stroke-miterlimit:10;" width="40" height="40"/>
	<rect id="b0017" x="88.761" y="128.761" style="fill:#FFFFFF;stroke:#FFFFFF;stroke-miterlimit:10;" width="40" height="40"/>
	<rect id="b0019" x="128.761" y="128.761" style="fill:#FFFFFF;stroke:#FFFFFF;stroke-miterlimit:10;" width="40" height="40"/>
	<rect id="b0025" x="168.761" y="128.761" style="fill:#FFFFFF;stroke:#FFFFFF;stroke-miterlimit:10;" width="40" height="40"/>
	<rect id="b0026" x="208.761" y="128.761" style="fill:#FFFFFF;stroke:#FFFFFF;stroke-miterlimit:10;" width="40" height="40"/>
	<rect id="b0027" x="248.761" y="128.761" style="fill:#FFFFFF;stroke:#FFFFFF;stroke-miterlimit:10;" width="40" height="40"/>
	<rect id="b0005" x="48.761" y="168.761" style="fill:#FFFFFF;stroke:#FFFFFF;stroke-miterlimit:10;" width="40" height="40"/>
	<rect id="b0006" x="88.761" y="168.761" style="fill:#FFFFFF;stroke:#FFFFFF;stroke-miterlimit:10;" width="40" height="40"/>
	<rect id="b0024" x="128.761" y="168.761" style="fill:#FFFFFF;stroke:#FFFFFF;stroke-miterlimit:10;" width="40" height="40"/>
	<rect id="b0012" x="168.761" y="168.761" style="fill:#FFFFFF;stroke:#FFFFFF;stroke-miterlimit:10;" width="40" height="40"/>
	<rect id="b0013" x="208.761" y="168.761" style="fill:#FFFFFF;stroke:#FFFFFF;stroke-miterlimit:10;" width="40" height="40"/>
	<rect id="b0015" x="248.761" y="168.761" style="fill:#FFFFFF;stroke:#FFFFFF;stroke-miterlimit:10;" width="40" height="40"/>
	<rect id="b0004" x="48.761" y="208.761" style="fill:#FFFFFF;stroke:#FFFFFF;stroke-miterlimit:10;" width="40" height="40"/>
	<rect id="b0007" x="88.761" y="208.761" style="fill:#FFFFFF;stroke:#FFFFFF;stroke-miterlimit:10;" width="40" height="40"/>
	<rect id="b0002" x="128.761" y="208.761" style="fill:#FFFFFF;stroke:#FFFFFF;stroke-miterlimit:10;" width="40" height="40"/>
	<rect id="b0009" x="168.761" y="208.761" style="fill:#FFFFFF;stroke:#FFFFFF;stroke-miterlimit:10;" width="40" height="40"/>
	<rect id="b0014" x="208.761" y="208.761" style="fill:#FFFFFF;stroke:#FFFFFF;stroke-miterlimit:10;" width="40" height="40"/>
	<rect id="b0011" x="248.761" y="208.761" style="fill:#FFFFFF;stroke:#FFFFFF;stroke-miterlimit:10;" width="40" height="40"/>
	<rect id="b0000" x="48.761" y="248.761" style="fill:#FFFFFF;stroke:#FFFFFF;stroke-miterlimit:10;" width="40" height="40"/>
	<rect id="b0001" x="88.761" y="248.761" style="fill:#FFFFFF;stroke:#FFFFFF;stroke-miterlimit:10;" width="40" height="40"/>
	<rect id="b0003" x="128.761" y="248.761" style="fill:#FFFFFF;stroke:#FFFFFF;stroke-miterlimit:10;" width="40" height="40"/>
	<rect id="b0008" x="168.761" y="248.761" style="fill:#FFFFFF;stroke:#FFFFFF;stroke-miterlimit:10;" width="40" height="40"/>
	<rect id="b0010" x="208.761" y="248.761" style="fill:#FFFFFF;stroke:#FFFFFF;stroke-miterlimit:10;" width="40" height="40"/>
</g>
<g id="VuMark-AsymmetryMarker">
</g>
<g id="VuMark-Feedback">
	
		<circle id="c0008_3_" style="fill:none;stroke:#E6007E;stroke-width:0.75;stroke-miterlimit:10;" cx="188.761" cy="268.761" r="5.063"/>
	
		<circle id="c0003_3_" style="fill:none;stroke:#E6007E;stroke-width:0.75;stroke-miterlimit:10;" cx="148.761" cy="268.761" r="5.063"/>
	
		<circle id="c0001_3_" style="fill:none;stroke:#E6007E;stroke-width:0.75;stroke-miterlimit:10;" cx="108.761" cy="268.761" r="5.063"/>
	
		<circle id="c0010_3_" style="fill:none;stroke:#E6007E;stroke-width:0.75;stroke-miterlimit:10;" cx="228.761" cy="268.761" r="5.063"/>
	
		<circle id="c0000_3_" style="fill:none;stroke:#E6007E;stroke-width:0.75;stroke-miterlimit:10;" cx="68.761" cy="268.761" r="5.063"/>
	
		<circle id="c0007_3_" style="fill:none;stroke:#E6007E;stroke-width:0.75;stroke-miterlimit:10;" cx="108.761" cy="228.761" r="5.063"/>
	
		<circle id="c0004_3_" style="fill:none;stroke:#E6007E;stroke-width:0.75;stroke-miterlimit:10;" cx="68.761" cy="228.761" r="5.063"/>
	
		<circle id="c0002_3_" style="fill:none;stroke:#E6007E;stroke-width:0.75;stroke-miterlimit:10;" cx="148.761" cy="228.761" r="5.063"/>
	
		<circle id="c0009_3_" style="fill:none;stroke:#E6007E;stroke-width:0.75;stroke-miterlimit:10;" cx="188.761" cy="228.761" r="5.063"/>
	
		<circle id="c0011_3_" style="fill:none;stroke:#E6007E;stroke-width:0.75;stroke-miterlimit:10;" cx="268.761" cy="228.761" r="5.063"/>
	
		<circle id="c0014_3_" style="fill:none;stroke:#E6007E;stroke-width:0.75;stroke-miterlimit:10;" cx="228.761" cy="228.761" r="5.063"/>
	
		<circle id="c0012_3_" style="fill:none;stroke:#E6007E;stroke-width:0.75;stroke-miterlimit:10;" cx="188.761" cy="188.761" r="5.063"/>
	
		<circle id="c0013_3_" style="fill:none;stroke:#E6007E;stroke-width:0.75;stroke-miterlimit:10;" cx="228.761" cy="188.761" r="5.063"/>
	
		<circle id="c0006_3_" style="fill:none;stroke:#E6007E;stroke-width:0.75;stroke-miterlimit:10;" cx="108.761" cy="188.761" r="5.063"/>
	
		<circle id="c0015_3_" style="fill:none;stroke:#E6007E;stroke-width:0.75;stroke-miterlimit:10;" cx="268.761" cy="188.761" r="5.063"/>
	
		<circle id="c0005_3_" style="fill:none;stroke:#E6007E;stroke-width:0.75;stroke-miterlimit:10;" cx="68.761" cy="188.761" r="5.063"/>
	
		<circle id="c0024_3_" style="fill:none;stroke:#E6007E;stroke-width:0.75;stroke-miterlimit:10;" cx="148.761" cy="188.761" r="5.063"/>
	
		<circle id="c0026_3_" style="fill:none;stroke:#E6007E;stroke-width:0.75;stroke-miterlimit:10;" cx="228.761" cy="148.761" r="5.063"/>
	
		<circle id="c0017_3_" style="fill:none;stroke:#E6007E;stroke-width:0.75;stroke-miterlimit:10;" cx="108.761" cy="148.761" r="5.063"/>
	
		<circle id="c0025_3_" style="fill:none;stroke:#E6007E;stroke-width:0.75;stroke-miterlimit:10;" cx="188.761" cy="148.761" r="5.063"/>
	
		<circle id="c0027_3_" style="fill:none;stroke:#E6007E;stroke-width:0.75;stroke-miterlimit:10;" cx="268.761" cy="148.761" r="5.063"/>
	
		<circle id="c0016_3_" style="fill:none;stroke:#E6007E;stroke-width:0.75;stroke-miterlimit:10;" cx="68.761" cy="148.761" r="5.063"/>
	
		<circle id="c0019_3_" style="fill:none;stroke:#E6007E;stroke-width:0.75;stroke-miterlimit:10;" cx="148.761" cy="148.761" r="5.063"/>
	
		<circle id="c0028_3_" style="fill:none;stroke:#E6007E;stroke-width:0.75;stroke-miterlimit:10;" cx="188.761" cy="108.761" r="5.063"/>
	
		<circle id="c0018_3_" style="fill:none;stroke:#E6007E;stroke-width:0.75;stroke-miterlimit:10;" cx="148.761" cy="108.761" r="5.063"/>
	
		<circle id="c0029_3_" style="fill:none;stroke:#E6007E;stroke-width:0.75;stroke-miterlimit:10;" cx="228.761" cy="108.761" r="5.063"/>
	
		<circle id="c0020_3_" style="fill:none;stroke:#E6007E;stroke-width:0.75;stroke-miterlimit:10;" cx="68.761" cy="108.761" r="5.063"/>
	
		<circle id="c0031_3_" style="fill:none;stroke:#E6007E;stroke-width:0.75;stroke-miterlimit:10;" cx="268.761" cy="108.761" r="5.063"/>
	
		<circle id="c0022_3_" style="fill:none;stroke:#E6007E;stroke-width:0.75;stroke-miterlimit:10;" cx="108.761" cy="108.761" r="5.063"/>
	
		<circle id="c0033_3_" style="fill:none;stroke:#E6007E;stroke-width:0.75;stroke-miterlimit:10;" cx="228.761" cy="68.761" r="5.063"/>
	
		<circle id="c0030_3_" style="fill:none;stroke:#E6007E;stroke-width:0.75;stroke-miterlimit:10;" cx="268.761" cy="68.761" r="5.063"/>
	
		<circle id="c0021_3_" style="fill:none;stroke:#E6007E;stroke-width:0.75;stroke-miterlimit:10;" cx="108.761" cy="68.761" r="5.063"/>
	
		<circle id="c0032_3_" style="fill:none;stroke:#E6007E;stroke-width:0.75;stroke-miterlimit:10;" cx="188.761" cy="68.761" r="5.063"/>
	
		<circle id="c0023_3_" style="fill:none;stroke:#E6007E;stroke-width:0.75;stroke-miterlimit:10;" cx="148.761" cy="68.761" r="5.063"/>
	<path id="MinimumContourClearSpace_12_" style="opacity:0.5;fill-rule:evenodd;clip-rule:evenodd;fill:#E6007E;" d="
		M14.678,322.844V14.678h308.166v308.166H14.678z M34.929,302.592V34.929h267.663v267.663H34.929z"/>
</g>
<g id="VuMark-Description">
	<g id="VuMark:myVumark4">
		<path d="M-459.553-161.753l-2.65-8.084h1.139l1.259,3.982c0.336,1.091,0.636,2.087,0.864,3.022h0.024
			c0.228-0.936,0.552-1.955,0.923-3.011l1.367-3.994h1.116l-2.891,8.084H-459.553z"/>
		<path d="M-450.026-163.348c0,0.611,0.012,1.139,0.048,1.595h-0.936l-0.06-0.947h-0.024c-0.264,0.468-0.887,1.079-1.919,1.079
			c-0.911,0-2.003-0.516-2.003-2.543v-3.394h1.056v3.202c0,1.104,0.348,1.859,1.295,1.859c0.708,0,1.199-0.492,1.391-0.972
			c0.06-0.145,0.096-0.336,0.096-0.54v-3.55h1.056V-163.348z"/>
		<path d="M-441.424-165.303c-0.06-1.115-0.132-2.495-0.132-3.49h-0.024c-0.288,0.936-0.612,1.967-1.02,3.07l-1.427,3.922h-0.792
			l-1.319-3.85c-0.384-1.14-0.695-2.184-0.923-3.143h-0.024c-0.024,1.008-0.084,2.362-0.156,3.574l-0.216,3.466h-0.995l0.563-8.084
			h1.332l1.379,3.91c0.336,0.995,0.6,1.896,0.815,2.734h0.024c0.216-0.815,0.503-1.715,0.863-2.734l1.439-3.91h1.331l0.504,8.084
			h-1.032L-441.424-165.303z"/>
		<path d="M-434.462-163.145c0,0.504,0.024,0.996,0.084,1.392h-0.948l-0.096-0.731h-0.036c-0.312,0.456-0.947,0.863-1.775,0.863
			c-1.175,0-1.775-0.827-1.775-1.667c0-1.403,1.247-2.171,3.49-2.159v-0.119c0-0.48-0.132-1.355-1.319-1.344
			c-0.551,0-1.115,0.156-1.523,0.432l-0.24-0.707c0.479-0.3,1.188-0.504,1.919-0.504c1.787,0,2.219,1.211,2.219,2.374V-163.145z
			 M-435.493-164.715c-1.151-0.024-2.459,0.18-2.459,1.307c0,0.696,0.456,1.008,0.983,1.008c0.768,0,1.259-0.479,1.427-0.972
			c0.036-0.107,0.048-0.228,0.048-0.336V-164.715z"/>
		<path d="M-432.768-165.747c0-0.684-0.012-1.271-0.048-1.811h0.923l0.048,1.14h0.036c0.264-0.78,0.912-1.271,1.619-1.271
			c0.108,0,0.192,0.012,0.288,0.023v0.996c-0.108-0.013-0.216-0.024-0.36-0.024c-0.744,0-1.271,0.563-1.416,1.344
			c-0.024,0.155-0.036,0.323-0.036,0.491v3.106h-1.056V-165.747z"/>
		<path d="M-427.74-164.896h0.024c0.144-0.203,0.335-0.455,0.503-0.659l1.715-2.003h1.259l-2.243,2.387l2.554,3.418h-1.283
			l-1.991-2.782l-0.54,0.6v2.183h-1.056v-8.516h1.056V-164.896z"/>
		<path d="M-422.593-165.855c-0.408,0-0.695-0.324-0.695-0.744c0-0.443,0.3-0.755,0.708-0.755c0.432,0,0.708,0.312,0.708,0.755
			c0,0.42-0.276,0.744-0.708,0.744H-422.593z M-422.593-161.621c-0.408,0-0.695-0.323-0.695-0.743c0-0.444,0.3-0.756,0.708-0.756
			c0.432,0,0.708,0.312,0.708,0.756c0,0.42-0.276,0.743-0.708,0.743H-422.593z"/>
		<path d="M-412.932-165.987c0-0.612-0.024-1.092-0.048-1.571h0.923l0.048,0.936h0.036c0.324-0.552,0.864-1.067,1.835-1.067
			c0.78,0,1.379,0.479,1.631,1.163h0.024c0.18-0.336,0.419-0.575,0.66-0.756c0.348-0.264,0.719-0.407,1.271-0.407
			c0.78,0,1.919,0.504,1.919,2.519v3.418h-1.031v-3.286c0-1.128-0.42-1.787-1.259-1.787c-0.612,0-1.067,0.443-1.259,0.947
			c-0.048,0.156-0.084,0.348-0.084,0.528v3.598h-1.032v-3.49c0-0.924-0.408-1.583-1.211-1.583c-0.648,0-1.14,0.527-1.308,1.056
			c-0.06,0.155-0.084,0.336-0.084,0.516v3.502h-1.031V-165.987z"/>
		<path d="M-402.697-167.558l1.259,3.43c0.144,0.384,0.288,0.84,0.384,1.188h0.024c0.108-0.348,0.228-0.791,0.372-1.211l1.151-3.406
			h1.115l-1.583,4.138c-0.756,1.991-1.271,2.998-1.991,3.634c-0.527,0.444-1.031,0.624-1.295,0.672l-0.264-0.876
			c0.264-0.084,0.612-0.252,0.924-0.516c0.288-0.228,0.635-0.636,0.887-1.175c0.048-0.108,0.084-0.192,0.084-0.252
			c0-0.061-0.024-0.145-0.084-0.276l-2.135-5.349H-402.697z"/>
		<path d="M-395.618-161.753l-2.65-8.084h1.139l1.259,3.982c0.336,1.091,0.636,2.087,0.864,3.022h0.024
			c0.228-0.936,0.552-1.955,0.923-3.011l1.367-3.994h1.116l-2.891,8.084H-395.618z"/>
		<path d="M-386.091-163.348c0,0.611,0.012,1.139,0.048,1.595h-0.936l-0.06-0.947h-0.024c-0.264,0.468-0.887,1.079-1.919,1.079
			c-0.911,0-2.003-0.516-2.003-2.543v-3.394h1.056v3.202c0,1.104,0.348,1.859,1.295,1.859c0.708,0,1.199-0.492,1.391-0.972
			c0.06-0.145,0.096-0.336,0.096-0.54v-3.55h1.056V-163.348z"/>
		<path d="M-384.336-165.987c0-0.612-0.024-1.092-0.048-1.571h0.923l0.048,0.936h0.036c0.324-0.552,0.864-1.067,1.835-1.067
			c0.78,0,1.379,0.479,1.631,1.163h0.024c0.18-0.336,0.419-0.575,0.66-0.756c0.348-0.264,0.719-0.407,1.271-0.407
			c0.78,0,1.919,0.504,1.919,2.519v3.418h-1.031v-3.286c0-1.128-0.42-1.787-1.259-1.787c-0.612,0-1.067,0.443-1.259,0.947
			c-0.048,0.156-0.084,0.348-0.084,0.528v3.598h-1.031v-3.49c0-0.924-0.408-1.583-1.211-1.583c-0.648,0-1.14,0.527-1.308,1.056
			c-0.06,0.155-0.084,0.336-0.084,0.516v3.502h-1.031V-165.987z"/>
		<path d="M-370.239-163.145c0,0.504,0.024,0.996,0.084,1.392h-0.948l-0.096-0.731h-0.036c-0.312,0.456-0.947,0.863-1.775,0.863
			c-1.175,0-1.775-0.827-1.775-1.667c0-1.403,1.247-2.171,3.49-2.159v-0.119c0-0.48-0.132-1.355-1.319-1.344
			c-0.552,0-1.116,0.156-1.523,0.432l-0.24-0.707c0.479-0.3,1.187-0.504,1.919-0.504c1.787,0,2.219,1.211,2.219,2.374V-163.145z
			 M-371.27-164.715c-1.151-0.024-2.458,0.18-2.458,1.307c0,0.696,0.456,1.008,0.983,1.008c0.768,0,1.259-0.479,1.427-0.972
			c0.036-0.107,0.048-0.228,0.048-0.336V-164.715z"/>
		<path d="M-368.544-165.747c0-0.684-0.012-1.271-0.048-1.811h0.923l0.048,1.14h0.036c0.264-0.78,0.912-1.271,1.619-1.271
			c0.108,0,0.192,0.012,0.288,0.023v0.996c-0.108-0.013-0.216-0.024-0.36-0.024c-0.744,0-1.271,0.563-1.416,1.344
			c-0.024,0.155-0.036,0.323-0.036,0.491v3.106h-1.056V-165.747z"/>
		<path d="M-363.517-164.896h0.024c0.144-0.203,0.335-0.455,0.503-0.659l1.715-2.003h1.259l-2.243,2.387l2.554,3.418h-1.283
			l-1.991-2.782l-0.54,0.6v2.183h-1.056v-8.516h1.056V-164.896z"/>
		<path d="M-356.018-161.753v-2.135h-3.622v-0.684l3.479-4.978h1.139v4.846h1.091v0.815h-1.091v2.135H-356.018z M-356.018-164.703
			v-2.603c0-0.408,0.012-0.815,0.036-1.224h-0.036c-0.24,0.456-0.432,0.792-0.647,1.151l-1.907,2.65v0.024H-356.018z"/>
	</g>
	<g id="IDtype:numeric">
		<path d="M-460.284-154.837v8.084h-1.056v-8.084H-460.284z"/>
		<path d="M-458.472-154.729c0.648-0.096,1.403-0.168,2.231-0.168c1.499,0,2.566,0.348,3.274,1.008
			c0.732,0.659,1.151,1.595,1.151,2.902c0,1.319-0.419,2.398-1.163,3.142c-0.768,0.756-2.015,1.164-3.586,1.164
			c-0.756,0-1.367-0.024-1.907-0.097V-154.729z M-457.416-147.569c0.264,0.048,0.647,0.048,1.055,0.048
			c2.231,0.012,3.442-1.247,3.442-3.43c0.012-1.907-1.067-3.119-3.274-3.119c-0.54,0-0.947,0.049-1.223,0.108V-147.569z"/>
		<path d="M-449.028-153.95v1.392h1.511v0.804h-1.511v3.118c0,0.72,0.204,1.127,0.792,1.127c0.288,0,0.456-0.023,0.612-0.071
			l0.048,0.803c-0.204,0.072-0.528,0.145-0.936,0.145c-0.492,0-0.888-0.168-1.14-0.444c-0.288-0.323-0.408-0.839-0.408-1.522v-3.154
			h-0.899v-0.804h0.899v-1.067L-449.028-153.95z"/>
		<path d="M-445.836-152.558l1.259,3.43c0.144,0.384,0.288,0.84,0.384,1.188h0.024c0.108-0.348,0.228-0.791,0.372-1.211l1.151-3.406
			h1.115l-1.583,4.138c-0.756,1.991-1.271,2.998-1.991,3.634c-0.527,0.444-1.031,0.624-1.295,0.672l-0.264-0.876
			c0.264-0.084,0.612-0.252,0.924-0.516c0.288-0.228,0.635-0.636,0.887-1.175c0.048-0.108,0.084-0.192,0.084-0.252
			c0-0.061-0.024-0.145-0.084-0.276l-2.135-5.349H-445.836z"/>
		<path d="M-440.568-150.663c0-0.743-0.012-1.343-0.048-1.895h0.947l0.06,0.995h0.024c0.42-0.72,1.115-1.127,2.051-1.127
			c1.416,0,2.471,1.188,2.471,2.95c0,2.087-1.283,3.118-2.639,3.118c-0.779,0-1.439-0.336-1.787-0.911h-0.024v3.154h-1.056V-150.663
			z M-439.513-149.116c0,0.144,0.012,0.3,0.048,0.432c0.18,0.731,0.828,1.235,1.571,1.235c1.115,0,1.763-0.912,1.763-2.243
			c0-1.163-0.6-2.159-1.715-2.159c-0.72,0-1.403,0.504-1.607,1.308c-0.024,0.132-0.06,0.288-0.06,0.42V-149.116z"/>
		<path d="M-433.141-149.464c0.024,1.416,0.923,2.003,1.979,2.003c0.755,0,1.223-0.132,1.607-0.3l0.192,0.756
			c-0.372,0.168-1.019,0.372-1.943,0.372c-1.775,0-2.854-1.188-2.854-2.927c0-1.751,1.043-3.13,2.735-3.13
			c1.895,0,2.387,1.667,2.387,2.734c0,0.216-0.012,0.372-0.036,0.491H-433.141z M-430.058-150.219
			c0.012-0.672-0.276-1.716-1.451-1.716c-1.08,0-1.535,0.984-1.619,1.716H-430.058z"/>
		<path d="M-427.273-150.855c-0.408,0-0.695-0.324-0.695-0.744c0-0.443,0.3-0.755,0.708-0.755c0.432,0,0.708,0.312,0.708,0.755
			c0,0.42-0.276,0.744-0.708,0.744H-427.273z M-427.273-146.621c-0.408,0-0.695-0.323-0.695-0.743c0-0.444,0.3-0.756,0.708-0.756
			c0.432,0,0.708,0.312,0.708,0.756c0,0.42-0.276,0.743-0.708,0.743H-427.273z"/>
		<path d="M-417.613-150.987c0-0.612-0.012-1.092-0.048-1.571h0.936l0.06,0.947h0.024c0.288-0.54,0.959-1.079,1.919-1.079
			c0.803,0,2.051,0.479,2.051,2.471v3.466h-1.056v-3.346c0-0.936-0.348-1.728-1.343-1.728c-0.684,0-1.223,0.492-1.415,1.079
			c-0.048,0.132-0.072,0.324-0.072,0.492v3.502h-1.056V-150.987z"/>
		<path d="M-406.096-148.348c0,0.611,0.012,1.139,0.048,1.595h-0.936l-0.06-0.947h-0.024c-0.264,0.468-0.887,1.079-1.919,1.079
			c-0.911,0-2.003-0.516-2.003-2.543v-3.394h1.056v3.202c0,1.104,0.348,1.859,1.295,1.859c0.708,0,1.199-0.492,1.391-0.972
			c0.06-0.145,0.096-0.336,0.096-0.54v-3.55h1.056V-148.348z"/>
		<path d="M-404.341-150.987c0-0.612-0.024-1.092-0.048-1.571h0.923l0.048,0.936h0.036c0.324-0.552,0.864-1.067,1.835-1.067
			c0.78,0,1.379,0.479,1.631,1.163h0.024c0.18-0.336,0.419-0.575,0.66-0.756c0.348-0.264,0.719-0.407,1.271-0.407
			c0.78,0,1.919,0.504,1.919,2.519v3.418h-1.031v-3.286c0-1.128-0.42-1.787-1.259-1.787c-0.612,0-1.067,0.443-1.259,0.947
			c-0.048,0.156-0.084,0.348-0.084,0.528v3.598h-1.031v-3.49c0-0.924-0.408-1.583-1.211-1.583c-0.648,0-1.14,0.527-1.308,1.056
			c-0.06,0.155-0.084,0.336-0.084,0.516v3.502h-1.031V-150.987z"/>
		<path d="M-393.734-149.464c0.024,1.416,0.923,2.003,1.979,2.003c0.755,0,1.223-0.132,1.607-0.3l0.192,0.756
			c-0.372,0.168-1.019,0.372-1.943,0.372c-1.775,0-2.854-1.188-2.854-2.927c0-1.751,1.043-3.13,2.735-3.13
			c1.895,0,2.387,1.667,2.387,2.734c0,0.216-0.012,0.372-0.036,0.491H-393.734z M-390.651-150.219
			c0.012-0.672-0.276-1.716-1.451-1.716c-1.08,0-1.535,0.984-1.619,1.716H-390.651z"/>
		<path d="M-388.321-150.747c0-0.684-0.012-1.271-0.048-1.811h0.923l0.048,1.14h0.036c0.264-0.78,0.912-1.271,1.619-1.271
			c0.108,0,0.192,0.012,0.288,0.023v0.996c-0.108-0.013-0.216-0.024-0.359-0.024c-0.744,0-1.271,0.563-1.416,1.344
			c-0.024,0.155-0.036,0.323-0.036,0.491v3.106h-1.056V-150.747z"/>
		<path d="M-383.846-153.541c-0.384,0-0.636-0.3-0.636-0.647c0-0.372,0.264-0.66,0.66-0.66c0.384,0,0.647,0.288,0.647,0.66
			c0,0.348-0.252,0.647-0.66,0.647H-383.846z M-384.349-146.753v-5.805h1.056v5.805H-384.349z"/>
		<path d="M-377.404-146.969c-0.276,0.132-0.887,0.336-1.667,0.336c-1.751,0-2.891-1.188-2.891-2.963
			c0-1.787,1.224-3.094,3.119-3.094c0.624,0,1.175,0.155,1.463,0.312l-0.24,0.804c-0.252-0.132-0.647-0.276-1.223-0.276
			c-1.332,0-2.051,0.996-2.051,2.195c0,1.343,0.864,2.171,2.015,2.171c0.6,0,0.996-0.145,1.295-0.276L-377.404-146.969z"/>
	</g>
	<g id="IDlength:10">
		<path d="M-460.284-139.837v8.084h-1.056v-8.084H-460.284z"/>
		<path d="M-458.472-139.729c0.648-0.096,1.403-0.168,2.231-0.168c1.499,0,2.566,0.348,3.274,1.008
			c0.732,0.659,1.151,1.595,1.151,2.902c0,1.319-0.419,2.398-1.163,3.142c-0.768,0.756-2.015,1.164-3.586,1.164
			c-0.756,0-1.367-0.024-1.907-0.097V-139.729z M-457.416-132.569c0.264,0.048,0.647,0.048,1.055,0.048
			c2.231,0.012,3.442-1.247,3.442-3.43c0.012-1.907-1.067-3.119-3.274-3.119c-0.54,0-0.947,0.049-1.223,0.108V-132.569z"/>
		<path d="M-450.504-140.269h1.056v8.516h-1.056V-140.269z"/>
		<path d="M-447.072-134.464c0.024,1.416,0.924,2.003,1.979,2.003c0.755,0,1.223-0.132,1.607-0.3l0.192,0.756
			c-0.372,0.168-1.019,0.372-1.943,0.372c-1.775,0-2.854-1.188-2.854-2.927c0-1.751,1.043-3.13,2.735-3.13
			c1.895,0,2.387,1.667,2.387,2.734c0,0.216-0.012,0.372-0.036,0.491H-447.072z M-443.99-135.219
			c0.012-0.672-0.276-1.716-1.451-1.716c-1.08,0-1.535,0.984-1.619,1.716H-443.99z"/>
		<path d="M-441.66-135.987c0-0.612-0.012-1.092-0.048-1.571h0.936l0.06,0.947h0.024c0.288-0.54,0.959-1.079,1.919-1.079
			c0.803,0,2.051,0.479,2.051,2.471v3.466h-1.056v-3.346c0-0.936-0.348-1.728-1.343-1.728c-0.684,0-1.223,0.492-1.415,1.079
			c-0.048,0.132-0.072,0.324-0.072,0.492v3.502h-1.056V-135.987z"/>
		<path d="M-430.035-132.605c0,1.344-0.276,2.146-0.828,2.662c-0.576,0.517-1.391,0.696-2.123,0.696
			c-0.696,0-1.463-0.168-1.931-0.479l0.264-0.816c0.384,0.252,0.984,0.468,1.703,0.468c1.08,0,1.871-0.563,1.871-2.038v-0.636
			h-0.024c-0.312,0.539-0.948,0.971-1.847,0.971c-1.439,0-2.471-1.223-2.471-2.842c0-1.967,1.284-3.07,2.627-3.07
			c1.007,0,1.547,0.516,1.811,1.007h0.024l0.036-0.875h0.936c-0.036,0.407-0.048,0.888-0.048,1.583V-132.605z M-431.091-135.28
			c0-0.168-0.012-0.323-0.06-0.468c-0.192-0.623-0.696-1.127-1.476-1.127c-1.007,0-1.727,0.852-1.727,2.207
			c0,1.127,0.588,2.087,1.715,2.087c0.66,0,1.247-0.408,1.463-1.092c0.06-0.168,0.084-0.372,0.084-0.563V-135.28z"/>
		<path d="M-427.021-138.95v1.392h1.511v0.804h-1.511v3.118c0,0.72,0.204,1.127,0.792,1.127c0.288,0,0.456-0.023,0.611-0.071
			l0.048,0.803c-0.204,0.072-0.528,0.145-0.936,0.145c-0.492,0-0.888-0.168-1.14-0.444c-0.288-0.323-0.408-0.839-0.408-1.522v-3.154
			h-0.899v-0.804h0.899v-1.067L-427.021-138.95z"/>
		<path d="M-424.32-140.269h1.056v3.622h0.024c0.168-0.3,0.432-0.575,0.755-0.743c0.312-0.192,0.684-0.3,1.08-0.3
			c0.779,0,2.027,0.479,2.027,2.482v3.454h-1.056v-3.346c0-0.936-0.348-1.716-1.343-1.716c-0.684,0-1.211,0.48-1.415,1.056
			c-0.06,0.144-0.072,0.3-0.072,0.504v3.502h-1.056V-140.269z"/>
		<path d="M-417.205-135.855c-0.408,0-0.695-0.324-0.695-0.744c0-0.443,0.3-0.755,0.708-0.755c0.432,0,0.708,0.312,0.708,0.755
			c0,0.42-0.276,0.744-0.708,0.744H-417.205z M-417.205-131.621c-0.408,0-0.695-0.323-0.695-0.743c0-0.444,0.3-0.756,0.708-0.756
			c0.432,0,0.708,0.312,0.708,0.756c0,0.42-0.276,0.743-0.708,0.743H-417.205z"/>
		<path d="M-405.59-138.566h-0.024l-1.355,0.731l-0.204-0.803l1.703-0.912h0.9v7.796h-1.02V-138.566z"/>
		<path d="M-399.242-131.621c-1.523,0-2.567-1.427-2.591-4.006c0-2.626,1.14-4.054,2.723-4.054c1.631,0,2.579,1.463,2.579,3.946
			c0,2.65-0.996,4.113-2.699,4.113H-399.242z M-399.182-132.437c1.067,0,1.583-1.26,1.583-3.25c0-1.919-0.48-3.179-1.583-3.179
			c-0.959,0-1.583,1.224-1.583,3.179c-0.024,2.026,0.6,3.25,1.571,3.25H-399.182z"/>
	</g>
	<g id="MaxID:999">
		<path d="M-454.516-120.303c-0.06-1.115-0.132-2.495-0.132-3.49h-0.024c-0.288,0.936-0.612,1.967-1.02,3.07l-1.427,3.922h-0.792
			l-1.319-3.85c-0.384-1.14-0.695-2.184-0.923-3.143h-0.024c-0.024,1.008-0.084,2.362-0.156,3.574l-0.216,3.466h-0.995l0.563-8.084
			h1.332l1.379,3.91c0.336,0.995,0.6,1.896,0.815,2.734h0.024c0.216-0.815,0.503-1.715,0.863-2.734l1.439-3.91h1.331l0.504,8.084
			h-1.032L-454.516-120.303z"/>
		<path d="M-447.554-118.145c0,0.504,0.024,0.996,0.084,1.392h-0.948l-0.096-0.731h-0.036c-0.312,0.456-0.947,0.863-1.775,0.863
			c-1.175,0-1.775-0.827-1.775-1.667c0-1.403,1.247-2.171,3.49-2.159v-0.119c0-0.48-0.132-1.355-1.319-1.344
			c-0.552,0-1.116,0.156-1.523,0.432l-0.24-0.707c0.479-0.3,1.187-0.504,1.919-0.504c1.787,0,2.219,1.211,2.219,2.374V-118.145z
			 M-448.586-119.715c-1.151-0.024-2.458,0.18-2.458,1.307c0,0.696,0.456,1.008,0.983,1.008c0.768,0,1.259-0.479,1.427-0.972
			c0.036-0.107,0.048-0.228,0.048-0.336V-119.715z"/>
		<path d="M-445.368-122.558l0.828,1.247c0.216,0.324,0.396,0.611,0.587,0.947h0.036c0.192-0.348,0.384-0.647,0.588-0.959
			l0.803-1.235h1.151l-1.979,2.807l2.027,2.998h-1.2l-0.851-1.308c-0.228-0.336-0.42-0.659-0.624-1.007h-0.024
			c-0.192,0.348-0.396,0.659-0.612,1.007l-0.839,1.308h-1.164l2.063-2.962l-1.967-2.843H-445.368z"/>
		<path d="M-439.224-124.837v8.084h-1.056v-8.084H-439.224z"/>
		<path d="M-437.412-124.729c0.648-0.096,1.403-0.168,2.231-0.168c1.499,0,2.566,0.348,3.274,1.008
			c0.732,0.659,1.151,1.595,1.151,2.902c0,1.319-0.419,2.398-1.163,3.142c-0.768,0.756-2.015,1.164-3.586,1.164
			c-0.756,0-1.367-0.024-1.907-0.097V-124.729z M-436.356-117.569c0.264,0.048,0.647,0.048,1.055,0.048
			c2.231,0.012,3.442-1.247,3.442-3.43c0.012-1.907-1.067-3.119-3.274-3.119c-0.54,0-0.947,0.049-1.223,0.108V-117.569z"/>
		<path d="M-428.989-120.855c-0.408,0-0.695-0.324-0.695-0.744c0-0.443,0.3-0.755,0.708-0.755c0.432,0,0.708,0.312,0.708,0.755
			c0,0.42-0.276,0.744-0.708,0.744H-428.989z M-428.989-116.621c-0.408,0-0.695-0.323-0.695-0.743c0-0.444,0.3-0.756,0.708-0.756
			c0.432,0,0.708,0.312,0.708,0.756c0,0.42-0.276,0.743-0.708,0.743H-428.989z"/>
		<path d="M-419.053-117.496c0.228,0.012,0.492,0,0.852-0.049c0.612-0.071,1.188-0.323,1.631-0.743
			c0.516-0.479,0.888-1.151,1.032-2.075h-0.036c-0.432,0.528-1.055,0.84-1.847,0.84c-1.403,0-2.303-1.056-2.303-2.398
			c0-1.464,1.08-2.759,2.675-2.759s2.579,1.283,2.579,3.286c0,1.715-0.576,2.915-1.343,3.658c-0.6,0.575-1.427,0.947-2.267,1.043
			c-0.384,0.049-0.732,0.072-0.972,0.061V-117.496z M-417.146-123.877c-0.887,0-1.523,0.792-1.523,1.895
			c0,0.972,0.588,1.655,1.499,1.655c0.708,0,1.259-0.348,1.547-0.815c0.048-0.096,0.084-0.216,0.084-0.384
			c0.012-1.343-0.492-2.351-1.595-2.351H-417.146z"/>
		<path d="M-412.897-117.496c0.228,0.012,0.492,0,0.852-0.049c0.612-0.071,1.188-0.323,1.631-0.743
			c0.516-0.479,0.888-1.151,1.032-2.075h-0.036c-0.432,0.528-1.055,0.84-1.847,0.84c-1.403,0-2.303-1.056-2.303-2.398
			c0-1.464,1.079-2.759,2.674-2.759s2.579,1.283,2.579,3.286c0,1.715-0.576,2.915-1.343,3.658c-0.6,0.575-1.427,0.947-2.267,1.043
			c-0.384,0.049-0.732,0.072-0.972,0.061V-117.496z M-410.99-123.877c-0.887,0-1.523,0.792-1.523,1.895
			c0,0.972,0.588,1.655,1.499,1.655c0.708,0,1.259-0.348,1.547-0.815c0.048-0.096,0.084-0.216,0.084-0.384
			c0.012-1.343-0.492-2.351-1.595-2.351H-410.99z"/>
		<path d="M-406.741-117.496c0.228,0.012,0.492,0,0.852-0.049c0.612-0.071,1.188-0.323,1.631-0.743
			c0.516-0.479,0.888-1.151,1.032-2.075h-0.036c-0.432,0.528-1.055,0.84-1.847,0.84c-1.403,0-2.303-1.056-2.303-2.398
			c0-1.464,1.08-2.759,2.675-2.759s2.579,1.283,2.579,3.286c0,1.715-0.576,2.915-1.343,3.658c-0.6,0.575-1.427,0.947-2.267,1.043
			c-0.384,0.049-0.732,0.072-0.972,0.061V-117.496z M-404.834-123.877c-0.887,0-1.523,0.792-1.523,1.895
			c0,0.972,0.588,1.655,1.499,1.655c0.708,0,1.259-0.348,1.547-0.815c0.048-0.096,0.084-0.216,0.084-0.384
			c0.012-1.343-0.492-2.351-1.595-2.351H-404.834z"/>
	</g>
	<g id="Elements:34">
		<path d="M-457.154-105.543h-3.13v2.914h3.502v0.876h-4.558v-8.084h4.378v0.876h-3.322v2.555h3.13V-105.543z"/>
		<path d="M-455.46-110.269h1.056v8.516h-1.056V-110.269z"/>
		<path d="M-452.028-104.464c0.024,1.416,0.924,2.003,1.979,2.003c0.755,0,1.223-0.132,1.607-0.3l0.192,0.756
			c-0.372,0.168-1.019,0.372-1.943,0.372c-1.775,0-2.854-1.188-2.854-2.927c0-1.751,1.043-3.13,2.735-3.13
			c1.895,0,2.387,1.667,2.387,2.734c0,0.216-0.012,0.372-0.036,0.491H-452.028z M-448.946-105.219
			c0.012-0.672-0.276-1.716-1.451-1.716c-1.08,0-1.535,0.984-1.619,1.716H-448.946z"/>
		<path d="M-446.616-105.987c0-0.612-0.024-1.092-0.048-1.571h0.923l0.048,0.936h0.036c0.324-0.552,0.864-1.067,1.835-1.067
			c0.78,0,1.379,0.479,1.631,1.163h0.024c0.18-0.336,0.419-0.575,0.66-0.756c0.348-0.264,0.719-0.407,1.271-0.407
			c0.78,0,1.919,0.504,1.919,2.519v3.418h-1.031v-3.286c0-1.128-0.42-1.787-1.259-1.787c-0.612,0-1.067,0.443-1.259,0.947
			c-0.048,0.156-0.084,0.348-0.084,0.528v3.598h-1.032v-3.49c0-0.924-0.408-1.583-1.211-1.583c-0.648,0-1.14,0.527-1.308,1.056
			c-0.06,0.155-0.084,0.336-0.084,0.516v3.502h-1.031V-105.987z"/>
		<path d="M-436.008-104.464c0.024,1.416,0.923,2.003,1.979,2.003c0.755,0,1.223-0.132,1.607-0.3l0.192,0.756
			c-0.372,0.168-1.019,0.372-1.943,0.372c-1.775,0-2.854-1.188-2.854-2.927c0-1.751,1.043-3.13,2.735-3.13
			c1.895,0,2.387,1.667,2.387,2.734c0,0.216-0.012,0.372-0.036,0.491H-436.008z M-432.926-105.219
			c0.012-0.672-0.276-1.716-1.451-1.716c-1.08,0-1.535,0.984-1.619,1.716H-432.926z"/>
		<path d="M-430.596-105.987c0-0.612-0.012-1.092-0.048-1.571h0.936l0.06,0.947h0.024c0.288-0.54,0.959-1.079,1.919-1.079
			c0.803,0,2.051,0.479,2.051,2.471v3.466h-1.056v-3.346c0-0.936-0.348-1.728-1.343-1.728c-0.684,0-1.223,0.492-1.415,1.079
			c-0.048,0.132-0.072,0.324-0.072,0.492v3.502h-1.056V-105.987z"/>
		<path d="M-422.713-108.95v1.392h1.511v0.804h-1.511v3.118c0,0.72,0.204,1.127,0.792,1.127c0.288,0,0.456-0.023,0.612-0.071
			l0.048,0.803c-0.204,0.072-0.528,0.145-0.936,0.145c-0.492,0-0.888-0.168-1.14-0.444c-0.288-0.323-0.408-0.839-0.408-1.522v-3.154
			h-0.899v-0.804h0.899v-1.067L-422.713-108.95z"/>
		<path d="M-420.156-102.832c0.324,0.191,0.875,0.407,1.403,0.407c0.756,0,1.115-0.371,1.115-0.863c0-0.504-0.3-0.768-1.067-1.056
			c-1.055-0.384-1.547-0.959-1.547-1.643c0-0.936,0.768-1.703,2.003-1.703c0.587,0,1.104,0.155,1.415,0.359l-0.252,0.756
			c-0.228-0.132-0.647-0.336-1.187-0.336c-0.624,0-0.959,0.36-0.959,0.792c0,0.479,0.335,0.695,1.091,0.995
			c0.996,0.372,1.523,0.876,1.523,1.739c0,1.031-0.803,1.751-2.159,1.751c-0.636,0-1.223-0.168-1.631-0.408L-420.156-102.832z"/>
		<path d="M-412.716-105.747c0-0.684-0.012-1.271-0.048-1.811h0.923l0.048,1.14h0.036c0.264-0.78,0.912-1.271,1.619-1.271
			c0.108,0,0.192,0.012,0.288,0.023v0.996c-0.108-0.013-0.216-0.024-0.36-0.024c-0.744,0-1.271,0.563-1.416,1.344
			c-0.024,0.155-0.036,0.323-0.036,0.491v3.106h-1.056V-105.747z"/>
		<path d="M-408.313-104.464c0.024,1.416,0.923,2.003,1.979,2.003c0.755,0,1.223-0.132,1.607-0.3l0.192,0.756
			c-0.372,0.168-1.019,0.372-1.943,0.372c-1.775,0-2.854-1.188-2.854-2.927c0-1.751,1.043-3.13,2.735-3.13
			c1.895,0,2.387,1.667,2.387,2.734c0,0.216-0.012,0.372-0.036,0.491H-408.313z M-405.23-105.219
			c0.012-0.672-0.276-1.716-1.451-1.716c-1.08,0-1.535,0.984-1.619,1.716H-405.23z"/>
		<path d="M-398.942-102.641h-0.024c-0.312,0.563-0.959,1.02-1.895,1.02c-1.355,0-2.459-1.163-2.459-2.938
			c0-2.171,1.403-3.13,2.627-3.13c0.899,0,1.499,0.443,1.787,1.007h0.024l0.036-0.875h1.007c-0.036,0.479-0.048,0.995-0.048,1.595
			v6.585h-1.055V-102.641z M-398.942-105.207c0-0.156-0.012-0.312-0.048-0.443c-0.167-0.648-0.719-1.2-1.511-1.2
			c-1.092,0-1.751,0.924-1.751,2.231c0,1.163,0.552,2.158,1.715,2.158c0.684,0,1.271-0.419,1.511-1.151
			c0.048-0.144,0.084-0.348,0.084-0.503V-105.207z"/>
		<path d="M-391.287-103.348c0,0.611,0.012,1.139,0.048,1.595h-0.936l-0.06-0.947h-0.024c-0.264,0.468-0.887,1.079-1.919,1.079
			c-0.911,0-2.003-0.516-2.003-2.543v-3.394h1.056v3.202c0,1.104,0.348,1.859,1.295,1.859c0.708,0,1.199-0.492,1.391-0.972
			c0.06-0.145,0.096-0.336,0.096-0.54v-3.55h1.056V-103.348z"/>
		<path d="M-389.029-108.541c-0.384,0-0.636-0.3-0.636-0.647c0-0.372,0.264-0.66,0.66-0.66c0.384,0,0.647,0.288,0.647,0.66
			c0,0.348-0.252,0.647-0.66,0.647H-389.029z M-389.533-101.753v-5.805h1.056v5.805H-389.533z"/>
		<path d="M-386.725-105.747c0-0.684-0.012-1.271-0.048-1.811h0.923l0.048,1.14h0.036c0.264-0.78,0.912-1.271,1.619-1.271
			c0.108,0,0.192,0.012,0.288,0.023v0.996c-0.108-0.013-0.216-0.024-0.36-0.024c-0.744,0-1.271,0.563-1.416,1.344
			c-0.024,0.155-0.036,0.323-0.036,0.491v3.106h-1.056V-105.747z"/>
		<path d="M-382.321-104.464c0.024,1.416,0.924,2.003,1.979,2.003c0.755,0,1.223-0.132,1.607-0.3l0.192,0.756
			c-0.372,0.168-1.019,0.372-1.943,0.372c-1.775,0-2.854-1.188-2.854-2.927c0-1.751,1.043-3.13,2.735-3.13
			c1.895,0,2.387,1.667,2.387,2.734c0,0.216-0.012,0.372-0.036,0.491H-382.321z M-379.239-105.219
			c0.012-0.672-0.276-1.716-1.451-1.716c-1.08,0-1.535,0.984-1.619,1.716H-379.239z"/>
		<path d="M-371.895-110.269v7.017c0,0.516,0.012,1.104,0.048,1.499h-0.947l-0.048-1.008h-0.024c-0.324,0.648-1.02,1.14-1.967,1.14
			c-1.403,0-2.495-1.188-2.495-2.95c-0.012-1.943,1.2-3.118,2.603-3.118c0.9,0,1.5,0.42,1.751,0.875h0.024v-3.454H-371.895z
			 M-372.951-105.196c0-0.144-0.012-0.312-0.048-0.455c-0.156-0.66-0.731-1.212-1.523-1.212c-1.091,0-1.739,0.96-1.739,2.23
			c0,1.188,0.588,2.159,1.715,2.159c0.708,0,1.355-0.479,1.547-1.271c0.036-0.132,0.048-0.275,0.048-0.443V-105.196z"/>
		<path d="M-369.685-105.855c-0.408,0-0.695-0.324-0.695-0.744c0-0.443,0.3-0.755,0.708-0.755c0.432,0,0.708,0.312,0.708,0.755
			c0,0.42-0.276,0.744-0.708,0.744H-369.685z M-369.685-101.621c-0.408,0-0.695-0.323-0.695-0.743c0-0.444,0.3-0.756,0.708-0.756
			c0.432,0,0.708,0.312,0.708,0.756c0,0.42-0.276,0.743-0.708,0.743H-369.685z"/>
		<path d="M-360.109-102.953c0.3,0.18,0.983,0.479,1.727,0.479c1.343,0,1.775-0.852,1.763-1.511c-0.012-1.092-0.996-1.56-2.015-1.56
			h-0.587v-0.791h0.587c0.768,0,1.739-0.396,1.739-1.319c0-0.624-0.396-1.176-1.367-1.176c-0.624,0-1.224,0.276-1.559,0.516
			l-0.288-0.768c0.42-0.3,1.211-0.6,2.051-0.6c1.535,0,2.231,0.911,2.231,1.859c0,0.815-0.492,1.499-1.439,1.847v0.024
			c0.959,0.18,1.739,0.899,1.739,1.99c0,1.248-0.983,2.339-2.842,2.339c-0.875,0-1.643-0.275-2.027-0.527L-360.109-102.953z"/>
		<path d="M-350.943-101.753v-2.135h-3.622v-0.684l3.479-4.978h1.139v4.846h1.091v0.815h-1.091v2.135H-350.943z M-350.943-104.703
			v-2.603c0-0.408,0.012-0.815,0.036-1.224h-0.036c-0.24,0.456-0.432,0.792-0.647,1.151l-1.907,2.65v0.024H-350.943z"/>
	</g>
	<g>
	</g>
	<g>
	</g>
	<g>
	</g>
	<g>
	</g>
	<g>
	</g>
	<g>
	</g>
</g>
</svg>
